<?xml version="1.0" standalone="no"?><!-- Generator: Gravit.io --><svg xmlns="http://www.w3.org/2000/svg" xmlns:xlink="http://www.w3.org/1999/xlink" style="isolation:isolate" viewBox="0 0 1008 400" width="1008" height="400"><defs><clipPath id="_clipPath_mOPMEbEjwu36GujyMt8D2zWwAISPTTPA"><rect width="1008" height="400"/></clipPath></defs><g clip-path="url(#_clipPath_mOPMEbEjwu36GujyMt8D2zWwAISPTTPA)"><rect width="1008" height="400" style="fill:rgb(20,20,20)"/><path d=" M 13.003 291.292 L 82.505 260.361 L 151.739 291.673 L 151.466 353.915 L 81.96 384.841 L 12.73 353.534 L 13.003 291.292 Z " fill-rule="evenodd" fill="rgb(255,255,255)"/><path d=" M 93.118 189.271 L 162.621 158.34 L 231.854 189.651 L 231.582 251.893 L 162.076 282.819 L 92.846 251.513 L 93.118 189.271 Z " fill-rule="evenodd" fill="rgb(230,217,102)"/><path d=" M 162.623 291.292 L 232.126 260.361 L 301.359 291.673 L 301.086 353.915 L 231.58 384.841 L 162.35 353.534 L 162.623 291.292 Z " fill-rule="evenodd" fill="rgb(238,229,146)"/><path d=" M 243.716 189.271 L 313.218 158.34 L 382.452 189.651 L 382.179 251.893 L 312.673 282.819 L 243.443 251.513 L 243.716 189.271 Z " fill-rule="evenodd" fill="rgb(255,255,255)"/><path d=" M 313.22 291.292 L 382.723 260.361 L 451.956 291.673 L 451.683 353.915 L 382.177 384.841 L 312.947 353.534 L 313.22 291.292 Z " fill-rule="evenodd" fill="rgb(230,217,102)"/><path d=" M 462.432 291.292 L 531.935 260.361 L 601.169 291.673 L 600.896 353.915 L 531.39 384.841 L 462.16 353.534 L 462.432 291.292 Z " fill-rule="evenodd" fill="rgb(255,255,255)"/><path d=" M 614.848 291.292 L 684.351 260.361 L 753.584 291.673 L 753.311 353.915 L 683.805 384.841 L 614.575 353.534 L 614.848 291.292 Z " fill-rule="evenodd" fill="rgb(230,217,102)"/><path d=" M 392.928 189.271 L 462.431 158.34 L 531.664 189.651 L 531.391 251.893 L 461.885 282.819 L 392.655 251.513 L 392.928 189.271 Z " fill-rule="evenodd" fill="rgb(238,229,146)"/><path d=" M 545.343 189.271 L 614.846 158.34 L 684.079 189.651 L 683.807 251.893 L 614.301 282.819 L 545.07 251.513 L 545.343 189.271 Z " fill-rule="evenodd" fill="rgb(255,255,255)"/><path d=" M 11.592 84.931 L 81.095 54 L 150.329 85.311 L 150.056 147.554 L 80.55 178.479 L 11.32 147.173 L 11.592 84.931 Z " fill-rule="evenodd" fill="rgb(230,217,102)"/><path d=" M 162.623 84.931 L 232.126 54 L 301.359 85.311 L 301.086 147.554 L 231.58 178.479 L 162.35 147.173 L 162.623 84.931 Z " fill-rule="evenodd" fill="rgb(238,229,146)"/><path d=" M 313.22 84.931 L 382.723 54 L 451.956 85.311 L 451.683 147.554 L 382.177 178.479 L 312.947 147.173 L 313.22 84.931 Z " fill-rule="evenodd" fill="rgb(255,255,255)"/><path d=" M 462.432 84.931 L 531.935 54 L 601.169 85.311 L 600.896 147.554 L 531.39 178.479 L 462.16 147.173 L 462.432 84.931 Z " fill-rule="evenodd" fill="rgb(230,217,102)"/><path d=" M 614.848 84.931 L 684.351 54 L 753.584 85.311 L 753.311 147.554 L 683.805 178.479 L 614.575 147.173 L 614.848 84.931 Z " fill-rule="evenodd" fill="rgb(238,229,146)"/><path d=" M 769.353 292.451 L 838.856 261.521 L 908.089 292.832 L 907.816 355.074 L 838.31 386 L 769.08 354.694 L 769.353 292.451 Z " fill-rule="evenodd" fill="rgb(230,217,102)"/><path d=" M 699.848 190.43 L 769.351 159.499 L 838.585 190.811 L 838.312 253.053 L 768.806 283.979 L 699.576 252.672 L 699.848 190.43 Z " fill-rule="evenodd" fill="rgb(255,255,255)"/><path d=" M 852.264 190.43 L 921.767 159.499 L 991 190.811 L 990.727 253.053 L 921.221 283.979 L 851.991 252.672 L 852.264 190.43 Z " fill-rule="evenodd" fill="rgb(238,229,146)"/><path d=" M 769.353 86.09 L 838.856 55.159 L 908.089 86.471 L 907.816 148.713 L 838.31 179.639 L 769.08 148.332 L 769.353 86.09 Z " fill-rule="evenodd" fill="rgb(230,217,102)"/></g></svg>