<?xml version="1.0" standalone="no"?><!-- Generator: Gravit.io --><svg xmlns="http://www.w3.org/2000/svg" xmlns:xlink="http://www.w3.org/1999/xlink" style="isolation:isolate" viewBox="64.676 55.885 534.324 204.115" width="534.324" height="204.115"><path d=" M 201.472 141.999 C 195.148 140.116 187.389 142.179 181.244 147.381 C 175.997 151.867 172.364 157.742 168.955 163.483 C 168.731 163.438 168.506 163.438 168.237 163.438 C 167.385 163.438 166.623 163.663 165.95 164.066 C 171.108 152.943 180.437 131.1 181.513 117.107 C 182.904 99.077 178.329 72.3 170.301 64.81 C 169.269 63.868 168.058 63.554 166.847 64.003 C 161.599 65.887 158.325 82.93 158.011 85.442 C 157.832 86.922 156.845 88.761 155.903 90.51 C 155.141 91.9 154.378 93.38 153.93 94.771 L 153.75 95.309 C 152.719 98.494 151.732 101.499 150.028 104.1 C 141.551 84.634 121.861 58.8 115.358 56.109 L 114.819 55.885 L 114.236 56.064 C 109.841 57.589 107.06 62.478 106.298 70.192 L 104.235 90.555 C 103.741 95.175 103.248 100.422 104.459 105.401 C 105.087 107.912 106.298 109.437 107.419 110.783 C 108.63 112.263 109.482 113.294 109.348 115.492 C 109.213 117.824 108.316 120.067 107.329 122.444 C 106.926 123.431 106.522 124.418 106.163 125.449 C 105.221 128.14 106.208 131.414 107.643 134.15 C 100.332 131.594 90.6 130.069 79.432 136.438 C 71.942 140.699 66.918 148.548 65.259 158.639 C 63.913 166.712 64.945 175.683 67.86 181.469 C 73.018 191.784 78.983 196.583 86.115 196.18 C 87.953 196.09 89.882 198.691 91.99 201.472 C 95.219 205.778 99.211 211.115 106.029 211.115 L 106.477 211.115 C 112.308 210.936 117.51 205.464 123.027 199.723 C 127.602 194.924 132.311 189.99 137.514 187.793 C 136.797 188.779 136.169 189.766 135.675 190.753 C 133.792 194.52 132.042 197.301 130.786 199.319 C 128.454 203.042 126.884 205.509 129.396 207.662 C 129.979 208.155 130.562 208.29 131.011 208.29 C 131.19 208.29 131.325 208.29 131.459 208.245 C 133.074 207.931 134.061 205.957 135.586 202.997 C 136.976 200.261 138.68 196.853 141.192 194.206 C 144.78 190.439 147.561 188.465 149.624 187.075 C 150.656 186.357 151.463 185.774 152.046 185.191 C 152.431 185.06 152.82 184.941 153.212 184.832 L 153.212 187.254 L 150.7 189.901 C 150.521 190.08 150.431 190.304 150.431 190.528 L 150.431 204.522 L 149.041 206.54 C 148.772 206.944 148.862 207.527 149.265 207.796 C 149.4 207.886 149.579 207.976 149.759 207.976 C 150.028 207.976 150.342 207.841 150.476 207.572 L 152.046 205.329 C 152.136 205.195 152.225 205.015 152.225 204.836 L 152.225 190.932 L 154.737 188.286 C 154.917 188.107 155.006 187.882 155.006 187.658 L 155.006 184.249 C 155.948 183.89 157.025 183.442 158.011 182.904 L 167.654 185.595 L 170.48 196.314 C 170.525 196.539 170.659 196.718 170.839 196.853 L 175.772 200.127 C 176.197 200.381 176.745 200.263 177.028 199.858 C 177.297 199.454 177.208 198.871 176.759 198.602 L 172.095 195.507 L 169.224 184.653 C 169.134 184.339 168.91 184.115 168.596 184.025 L 160.03 181.603 C 160.164 181.469 160.344 181.379 160.478 181.244 C 160.971 180.796 161.599 180.258 162.272 179.674 C 162.452 179.495 162.631 179.36 162.81 179.181 C 164.694 179.136 169.942 178.777 173.575 177.073 L 177.028 185.46 C 177.073 185.595 177.163 185.685 177.252 185.774 L 179.809 188.286 C 179.988 188.465 180.213 188.555 180.437 188.555 C 180.661 188.555 180.885 188.465 181.065 188.286 C 181.424 187.927 181.424 187.344 181.065 187.03 L 178.643 184.653 L 174.875 175.548 C 174.786 175.324 174.561 175.1 174.337 175.055 C 174.068 174.965 173.799 175.01 173.575 175.144 C 171.287 176.535 167.609 177.073 165.053 177.342 C 166.937 175.638 168.417 174.203 169.179 172.902 C 171.287 172.498 172.902 170.614 172.902 168.327 C 172.902 166.892 172.274 165.636 171.287 164.784 C 171.915 164.066 172.543 163.349 173.126 162.631 C 174.831 160.568 176.445 158.639 178.777 157.204 C 182.679 154.827 186.806 153.84 190.439 154.423 C 194.61 155.051 198.063 157.877 199.095 161.42 C 199.274 162.003 199.902 162.362 200.485 162.182 C 201.069 162.003 201.427 161.375 201.248 160.792 C 199.992 156.397 195.776 152.943 190.798 152.181 C 186.626 151.553 181.962 152.629 177.611 155.275 C 177.297 155.455 177.028 155.634 176.759 155.814 C 178.553 153.436 180.482 151.194 182.769 149.265 C 187.12 145.543 194.206 142.313 200.934 144.287 C 201.517 144.466 202.145 144.107 202.324 143.524 C 202.414 142.807 202.1 142.179 201.472 141.999 L 201.472 141.999 Z  M 167.968 66.963 C 167.968 66.963 168.058 67.008 168.193 67.142 C 174.786 73.377 179.854 98.045 178.419 116.927 C 177.118 133.657 162.945 163.304 160.254 168.82 C 164.29 159.446 172.992 137.38 175.1 116.479 C 177.522 92.573 168.776 73.287 166.488 68.667 C 167.206 67.367 167.744 66.963 167.968 66.963 L 167.968 66.963 Z  M 153.212 104.952 C 155.948 109.617 162.048 121.502 160.882 133.343 C 160.837 133.971 161.285 134.509 161.868 134.554 L 161.958 134.554 C 162.541 134.554 163.035 134.105 163.079 133.522 C 164.425 119.708 156.711 106.298 154.378 102.575 C 155.32 100.512 156.038 98.359 156.711 96.251 L 156.89 95.713 C 157.249 94.547 157.966 93.291 158.684 91.945 C 159.76 89.927 160.882 87.864 161.151 85.756 C 161.465 83.154 162.541 78.355 163.976 74.184 C 164.38 72.973 164.784 71.942 165.187 71.089 C 168.103 77.324 175.01 94.861 172.857 116.165 C 170.345 140.788 158.549 167.206 156.441 171.736 C 156.352 171.781 156.307 171.825 156.217 171.87 C 157.922 162.765 161.285 137.335 152.27 109.975 C 152.001 109.168 151.732 108.361 151.418 107.509 C 152.136 106.701 152.719 105.849 153.212 104.952 Z  M 114.775 59.293 C 121.278 63.106 143.21 92.259 149.355 110.917 C 158.325 138.187 154.692 163.438 153.078 171.736 C 152.808 160.254 151.598 131.235 146.081 115.806 C 139.084 96.161 123.79 68.129 110.783 64.407 C 111.59 62.164 112.846 60.235 114.775 59.293 L 114.775 59.293 Z  M 109.168 126.481 C 109.482 125.539 109.886 124.597 110.289 123.61 C 111.321 121.099 112.397 118.497 112.577 115.627 L 112.577 115.402 C 117.286 118.363 127.961 126.212 132.581 139.174 C 132.76 139.622 133.164 139.936 133.657 139.936 C 133.792 139.936 133.926 139.936 134.016 139.891 C 134.599 139.667 134.913 139.039 134.689 138.456 C 129.127 123.027 115.941 114.73 112.218 112.622 C 111.725 111.007 110.783 109.841 109.931 108.809 C 108.944 107.643 108.047 106.522 107.598 104.683 C 106.522 100.243 106.97 95.488 107.464 90.914 L 109.527 70.551 C 109.662 69.385 109.841 68.174 110.11 66.963 C 120.695 70.013 135.675 94.502 143.614 116.748 C 149.355 132.805 150.342 165.187 150.476 174.203 C 145.273 167.385 125.225 141.506 116.748 137.963 C 115.986 137.649 115.133 137.245 114.192 136.841 L 112.711 136.169 C 110.289 133.208 108.316 128.858 109.168 126.481 L 109.168 126.481 Z  M 87.819 193.22 C 87.191 193.04 86.563 192.95 85.935 192.995 C 80.777 193.309 76.382 190.08 72.256 182.993 C 76.023 180.213 90.465 171.601 118.632 176.131 C 119.26 176.221 119.798 175.817 119.932 175.189 C 120.022 174.561 119.619 174.023 118.991 173.889 C 90.42 169.269 75.619 177.701 71.179 180.975 C 71 180.661 70.865 180.347 70.686 180.033 C 66.066 170.749 65.483 147.92 81.002 139.129 C 94.591 131.414 105.625 136.393 112.936 139.712 C 113.878 140.116 114.73 140.519 115.537 140.878 C 122.668 143.883 141.551 167.565 148.772 177.163 C 147.516 178.105 146.26 179.091 145.049 180.123 C 142.762 179.495 135.496 177.656 125.987 177.925 C 115.716 178.239 100.826 181.155 87.819 193.22 L 87.819 193.22 Z  M 120.695 197.525 C 115.627 202.818 110.873 207.796 106.343 207.976 C 100.96 208.155 97.641 203.804 94.502 199.588 C 93.111 197.705 91.766 195.911 90.241 194.655 C 102.485 183.666 116.3 180.975 125.943 180.661 C 133.343 180.437 139.443 181.558 142.582 182.276 C 142.134 182.679 141.685 183.128 141.282 183.532 C 133.164 184.429 126.57 191.381 120.695 197.525 L 120.695 197.525 Z  M 160.433 177.522 C 159.716 178.105 159.088 178.643 158.594 179.136 C 156.755 180.751 152.36 182.231 150.835 182.679 C 150.566 182.769 150.387 182.904 150.207 183.083 C 149.803 183.532 148.996 184.115 147.965 184.832 C 145.946 186.223 142.896 188.376 139.129 192.323 C 136.348 195.238 134.509 198.871 133.074 201.786 C 132.401 203.132 131.504 204.926 130.966 205.509 C 130.517 204.971 130.921 204.163 133.029 200.755 C 134.33 198.691 136.124 195.821 138.052 191.919 C 142.224 183.532 158.998 173.216 164.156 170.211 C 164.604 171.108 165.277 171.825 166.129 172.274 C 164.739 173.889 162.138 176.041 160.433 177.522 Z  M 168.237 170.121 C 167.206 170.121 166.354 169.224 166.354 168.148 C 166.354 167.071 167.206 166.174 168.237 166.174 C 169.269 166.174 170.121 167.071 170.121 168.148 C 170.146 168.663 169.958 169.165 169.602 169.538 C 169.246 169.911 168.753 170.122 168.237 170.121 L 168.237 170.121 Z " fill="rgb(51,51,51)"/><path d=" M 201.472 141.999 C 195.148 140.116 187.389 142.179 181.244 147.381 C 175.997 151.867 172.364 157.742 168.955 163.483 C 168.731 163.438 168.506 163.438 168.237 163.438 C 167.385 163.438 166.623 163.663 165.95 164.066 C 171.108 152.943 180.437 131.1 181.513 117.107 C 182.904 99.077 178.329 72.3 170.301 64.81 C 169.269 63.868 168.058 63.554 166.847 64.003 C 161.599 65.887 158.325 82.93 158.011 85.442 C 157.832 86.922 156.845 88.761 155.903 90.51 C 155.141 91.9 154.378 93.38 153.93 94.771 L 153.75 95.309 C 152.719 98.494 151.732 101.499 150.028 104.1 C 141.551 84.634 121.861 58.8 115.358 56.109 L 114.819 55.885 L 114.236 56.064 C 109.841 57.589 107.06 62.478 106.298 70.192 L 104.235 90.555 C 103.741 95.175 103.248 100.422 104.459 105.401 C 105.087 107.912 106.298 109.437 107.419 110.783 C 108.63 112.263 109.482 113.294 109.348 115.492 C 109.213 117.824 108.316 120.067 107.329 122.444 C 106.926 123.431 106.522 124.418 106.163 125.449 C 105.221 128.14 106.208 131.414 107.643 134.15 C 100.332 131.594 90.6 130.069 79.432 136.438 C 71.942 140.699 66.918 148.548 65.259 158.639 C 63.913 166.712 64.945 175.683 67.86 181.469 C 73.018 191.784 78.983 196.583 86.115 196.18 C 87.953 196.09 89.882 198.691 91.99 201.472 C 95.219 205.778 99.211 211.115 106.029 211.115 L 106.477 211.115 C 112.308 210.936 117.51 205.464 123.027 199.723 C 127.602 194.924 132.311 189.99 137.514 187.793 C 136.797 188.779 136.169 189.766 135.675 190.753 C 133.792 194.52 132.042 197.301 130.786 199.319 C 128.454 203.042 126.884 205.509 129.396 207.662 C 129.979 208.155 130.562 208.29 131.011 208.29 C 131.19 208.29 131.325 208.29 131.459 208.245 C 133.074 207.931 134.061 205.957 135.586 202.997 C 136.976 200.261 138.68 196.853 141.192 194.206 C 144.78 190.439 147.561 188.465 149.624 187.075 C 150.656 186.357 151.463 185.774 152.046 185.191 C 152.431 185.06 152.82 184.941 153.212 184.832 L 153.212 187.254 L 150.7 189.901 C 150.521 190.08 150.431 190.304 150.431 190.528 L 150.431 204.522 L 149.041 206.54 C 148.772 206.944 148.862 207.527 149.265 207.796 C 149.4 207.886 149.579 207.976 149.759 207.976 C 150.028 207.976 150.342 207.841 150.476 207.572 L 152.046 205.329 C 152.136 205.195 152.225 205.015 152.225 204.836 L 152.225 190.932 L 154.737 188.286 C 154.917 188.107 155.006 187.882 155.006 187.658 L 155.006 184.249 C 155.948 183.89 157.025 183.442 158.011 182.904 L 167.654 185.595 L 170.48 196.314 C 170.525 196.539 170.659 196.718 170.839 196.853 L 175.772 200.127 C 176.197 200.381 176.745 200.263 177.028 199.858 C 177.297 199.454 177.208 198.871 176.759 198.602 L 172.095 195.507 L 169.224 184.653 C 169.134 184.339 168.91 184.115 168.596 184.025 L 160.03 181.603 C 160.164 181.469 160.344 181.379 160.478 181.244 C 160.971 180.796 161.599 180.258 162.272 179.674 C 162.452 179.495 162.631 179.36 162.81 179.181 C 164.694 179.136 169.942 178.777 173.575 177.073 L 177.028 185.46 C 177.073 185.595 177.163 185.685 177.252 185.774 L 179.809 188.286 C 179.988 188.465 180.213 188.555 180.437 188.555 C 180.661 188.555 180.885 188.465 181.065 188.286 C 181.424 187.927 181.424 187.344 181.065 187.03 L 178.643 184.653 L 174.875 175.548 C 174.786 175.324 174.561 175.1 174.337 175.055 C 174.068 174.965 173.799 175.01 173.575 175.144 C 171.287 176.535 167.609 177.073 165.053 177.342 C 166.937 175.638 168.417 174.203 169.179 172.902 C 171.287 172.498 172.902 170.614 172.902 168.327 C 172.902 166.892 172.274 165.636 171.287 164.784 C 171.915 164.066 172.543 163.349 173.126 162.631 C 174.831 160.568 176.445 158.639 178.777 157.204 C 182.679 154.827 186.806 153.84 190.439 154.423 C 194.61 155.051 198.063 157.877 199.095 161.42 C 199.274 162.003 199.902 162.362 200.485 162.182 C 201.069 162.003 201.427 161.375 201.248 160.792 C 199.992 156.397 195.776 152.943 190.798 152.181 C 186.626 151.553 181.962 152.629 177.611 155.275 C 177.297 155.455 177.028 155.634 176.759 155.814 C 178.553 153.436 180.482 151.194 182.769 149.265 C 187.12 145.543 194.206 142.313 200.934 144.287 C 201.517 144.466 202.145 144.107 202.324 143.524 C 202.414 142.807 202.1 142.179 201.472 141.999 L 201.472 141.999 Z  M 167.968 66.963 C 167.968 66.963 168.058 67.008 168.193 67.142 C 174.786 73.377 179.854 98.045 178.419 116.927 C 177.118 133.657 162.945 163.304 160.254 168.82 C 164.29 159.446 172.992 137.38 175.1 116.479 C 177.522 92.573 168.776 73.287 166.488 68.667 C 167.206 67.367 167.744 66.963 167.968 66.963 L 167.968 66.963 Z  M 153.212 104.952 C 155.948 109.617 162.048 121.502 160.882 133.343 C 160.837 133.971 161.285 134.509 161.868 134.554 L 161.958 134.554 C 162.541 134.554 163.035 134.105 163.079 133.522 C 164.425 119.708 156.711 106.298 154.378 102.575 C 155.32 100.512 156.038 98.359 156.711 96.251 L 156.89 95.713 C 157.249 94.547 157.966 93.291 158.684 91.945 C 159.76 89.927 160.882 87.864 161.151 85.756 C 161.465 83.154 162.541 78.355 163.976 74.184 C 164.38 72.973 164.784 71.942 165.187 71.089 C 168.103 77.324 175.01 94.861 172.857 116.165 C 170.345 140.788 158.549 167.206 156.441 171.736 C 156.352 171.781 156.307 171.825 156.217 171.87 C 157.922 162.765 161.285 137.335 152.27 109.975 C 152.001 109.168 151.732 108.361 151.418 107.509 C 152.136 106.701 152.719 105.849 153.212 104.952 Z  M 114.775 59.293 C 121.278 63.106 143.21 92.259 149.355 110.917 C 158.325 138.187 154.692 163.438 153.078 171.736 C 152.808 160.254 151.598 131.235 146.081 115.806 C 139.084 96.161 123.79 68.129 110.783 64.407 C 111.59 62.164 112.846 60.235 114.775 59.293 L 114.775 59.293 Z  M 109.168 126.481 C 109.482 125.539 109.886 124.597 110.289 123.61 C 111.321 121.099 112.397 118.497 112.577 115.627 L 112.577 115.402 C 117.286 118.363 127.961 126.212 132.581 139.174 C 132.76 139.622 133.164 139.936 133.657 139.936 C 133.792 139.936 133.926 139.936 134.016 139.891 C 134.599 139.667 134.913 139.039 134.689 138.456 C 129.127 123.027 115.941 114.73 112.218 112.622 C 111.725 111.007 110.783 109.841 109.931 108.809 C 108.944 107.643 108.047 106.522 107.598 104.683 C 106.522 100.243 106.97 95.488 107.464 90.914 L 109.527 70.551 C 109.662 69.385 109.841 68.174 110.11 66.963 C 120.695 70.013 135.675 94.502 143.614 116.748 C 149.355 132.805 150.342 165.187 150.476 174.203 C 145.273 167.385 125.225 141.506 116.748 137.963 C 115.986 137.649 115.133 137.245 114.192 136.841 L 112.711 136.169 C 110.289 133.208 108.316 128.858 109.168 126.481 L 109.168 126.481 Z  M 87.819 193.22 C 87.191 193.04 86.563 192.95 85.935 192.995 C 80.777 193.309 76.382 190.08 72.256 182.993 C 76.023 180.213 90.465 171.601 118.632 176.131 C 119.26 176.221 119.798 175.817 119.932 175.189 C 120.022 174.561 119.619 174.023 118.991 173.889 C 90.42 169.269 75.619 177.701 71.179 180.975 C 71 180.661 70.865 180.347 70.686 180.033 C 66.066 170.749 65.483 147.92 81.002 139.129 C 94.591 131.414 105.625 136.393 112.936 139.712 C 113.878 140.116 114.73 140.519 115.537 140.878 C 122.668 143.883 141.551 167.565 148.772 177.163 C 147.516 178.105 146.26 179.091 145.049 180.123 C 142.762 179.495 135.496 177.656 125.987 177.925 C 115.716 178.239 100.826 181.155 87.819 193.22 L 87.819 193.22 Z  M 120.695 197.525 C 115.627 202.818 110.873 207.796 106.343 207.976 C 100.96 208.155 97.641 203.804 94.502 199.588 C 93.111 197.705 91.766 195.911 90.241 194.655 C 102.485 183.666 116.3 180.975 125.943 180.661 C 133.343 180.437 139.443 181.558 142.582 182.276 C 142.134 182.679 141.685 183.128 141.282 183.532 C 133.164 184.429 126.57 191.381 120.695 197.525 L 120.695 197.525 Z  M 160.433 177.522 C 159.716 178.105 159.088 178.643 158.594 179.136 C 156.755 180.751 152.36 182.231 150.835 182.679 C 150.566 182.769 150.387 182.904 150.207 183.083 C 149.803 183.532 148.996 184.115 147.965 184.832 C 145.946 186.223 142.896 188.376 139.129 192.323 C 136.348 195.238 134.509 198.871 133.074 201.786 C 132.401 203.132 131.504 204.926 130.966 205.509 C 130.517 204.971 130.921 204.163 133.029 200.755 C 134.33 198.691 136.124 195.821 138.052 191.919 C 142.224 183.532 158.998 173.216 164.156 170.211 C 164.604 171.108 165.277 171.825 166.129 172.274 C 164.739 173.889 162.138 176.041 160.433 177.522 Z  M 168.237 170.121 C 167.206 170.121 166.354 169.224 166.354 168.148 C 166.354 167.071 167.206 166.174 168.237 166.174 C 169.269 166.174 170.121 167.071 170.121 168.148 C 170.146 168.663 169.958 169.165 169.602 169.538 C 169.246 169.911 168.753 170.122 168.237 170.121 L 168.237 170.121 Z " fill="rgb(51,51,51)"/><path d=" M 201.472 141.999 C 195.148 140.116 187.389 142.179 181.244 147.381 C 175.997 151.867 172.364 157.742 168.955 163.483 C 168.731 163.438 168.506 163.438 168.237 163.438 C 167.385 163.438 166.623 163.663 165.95 164.066 C 171.108 152.943 180.437 131.1 181.513 117.107 C 182.904 99.077 178.329 72.3 170.301 64.81 C 169.269 63.868 168.058 63.554 166.847 64.003 C 161.599 65.887 158.325 82.93 158.011 85.442 C 157.832 86.922 156.845 88.761 155.903 90.51 C 155.141 91.9 154.378 93.38 153.93 94.771 L 153.75 95.309 C 152.719 98.494 151.732 101.499 150.028 104.1 C 141.551 84.634 121.861 58.8 115.358 56.109 L 114.819 55.885 L 114.236 56.064 C 109.841 57.589 107.06 62.478 106.298 70.192 L 104.235 90.555 C 103.741 95.175 103.248 100.422 104.459 105.401 C 105.087 107.912 106.298 109.437 107.419 110.783 C 108.63 112.263 109.482 113.294 109.348 115.492 C 109.213 117.824 108.316 120.067 107.329 122.444 C 106.926 123.431 106.522 124.418 106.163 125.449 C 105.221 128.14 106.208 131.414 107.643 134.15 C 100.332 131.594 90.6 130.069 79.432 136.438 C 71.942 140.699 66.918 148.548 65.259 158.639 C 63.913 166.712 64.945 175.683 67.86 181.469 C 73.018 191.784 78.983 196.583 86.115 196.18 C 87.953 196.09 89.882 198.691 91.99 201.472 C 95.219 205.778 99.211 211.115 106.029 211.115 L 106.477 211.115 C 112.308 210.936 117.51 205.464 123.027 199.723 C 127.602 194.924 132.311 189.99 137.514 187.793 C 136.797 188.779 136.169 189.766 135.675 190.753 C 133.792 194.52 132.042 197.301 130.786 199.319 C 128.454 203.042 126.884 205.509 129.396 207.662 C 129.979 208.155 130.562 208.29 131.011 208.29 C 131.19 208.29 131.325 208.29 131.459 208.245 C 133.074 207.931 134.061 205.957 135.586 202.997 C 136.976 200.261 138.68 196.853 141.192 194.206 C 144.78 190.439 147.561 188.465 149.624 187.075 C 150.656 186.357 151.463 185.774 152.046 185.191 C 152.431 185.06 152.82 184.941 153.212 184.832 L 153.212 187.254 L 150.7 189.901 C 150.521 190.08 150.431 190.304 150.431 190.528 L 150.431 204.522 L 149.041 206.54 C 148.772 206.944 148.862 207.527 149.265 207.796 C 149.4 207.886 149.579 207.976 149.759 207.976 C 150.028 207.976 150.342 207.841 150.476 207.572 L 152.046 205.329 C 152.136 205.195 152.225 205.015 152.225 204.836 L 152.225 190.932 L 154.737 188.286 C 154.917 188.107 155.006 187.882 155.006 187.658 L 155.006 184.249 C 155.948 183.89 157.025 183.442 158.011 182.904 L 167.654 185.595 L 170.48 196.314 C 170.525 196.539 170.659 196.718 170.839 196.853 L 175.772 200.127 C 176.197 200.381 176.745 200.263 177.028 199.858 C 177.297 199.454 177.208 198.871 176.759 198.602 L 172.095 195.507 L 169.224 184.653 C 169.134 184.339 168.91 184.115 168.596 184.025 L 160.03 181.603 C 160.164 181.469 160.344 181.379 160.478 181.244 C 160.971 180.796 161.599 180.258 162.272 179.674 C 162.452 179.495 162.631 179.36 162.81 179.181 C 164.694 179.136 169.942 178.777 173.575 177.073 L 177.028 185.46 C 177.073 185.595 177.163 185.685 177.252 185.774 L 179.809 188.286 C 179.988 188.465 180.213 188.555 180.437 188.555 C 180.661 188.555 180.885 188.465 181.065 188.286 C 181.424 187.927 181.424 187.344 181.065 187.03 L 178.643 184.653 L 174.875 175.548 C 174.786 175.324 174.561 175.1 174.337 175.055 C 174.068 174.965 173.799 175.01 173.575 175.144 C 171.287 176.535 167.609 177.073 165.053 177.342 C 166.937 175.638 168.417 174.203 169.179 172.902 C 171.287 172.498 172.902 170.614 172.902 168.327 C 172.902 166.892 172.274 165.636 171.287 164.784 C 171.915 164.066 172.543 163.349 173.126 162.631 C 174.831 160.568 176.445 158.639 178.777 157.204 C 182.679 154.827 186.806 153.84 190.439 154.423 C 194.61 155.051 198.063 157.877 199.095 161.42 C 199.274 162.003 199.902 162.362 200.485 162.182 C 201.069 162.003 201.427 161.375 201.248 160.792 C 199.992 156.397 195.776 152.943 190.798 152.181 C 186.626 151.553 181.962 152.629 177.611 155.275 C 177.297 155.455 177.028 155.634 176.759 155.814 C 178.553 153.436 180.482 151.194 182.769 149.265 C 187.12 145.543 194.206 142.313 200.934 144.287 C 201.517 144.466 202.145 144.107 202.324 143.524 C 202.414 142.807 202.1 142.179 201.472 141.999 L 201.472 141.999 Z  M 167.968 66.963 C 167.968 66.963 168.058 67.008 168.193 67.142 C 174.786 73.377 179.854 98.045 178.419 116.927 C 177.118 133.657 162.945 163.304 160.254 168.82 C 164.29 159.446 172.992 137.38 175.1 116.479 C 177.522 92.573 168.776 73.287 166.488 68.667 C 167.206 67.367 167.744 66.963 167.968 66.963 L 167.968 66.963 Z  M 153.212 104.952 C 155.948 109.617 162.048 121.502 160.882 133.343 C 160.837 133.971 161.285 134.509 161.868 134.554 L 161.958 134.554 C 162.541 134.554 163.035 134.105 163.079 133.522 C 164.425 119.708 156.711 106.298 154.378 102.575 C 155.32 100.512 156.038 98.359 156.711 96.251 L 156.89 95.713 C 157.249 94.547 157.966 93.291 158.684 91.945 C 159.76 89.927 160.882 87.864 161.151 85.756 C 161.465 83.154 162.541 78.355 163.976 74.184 C 164.38 72.973 164.784 71.942 165.187 71.089 C 168.103 77.324 175.01 94.861 172.857 116.165 C 170.345 140.788 158.549 167.206 156.441 171.736 C 156.352 171.781 156.307 171.825 156.217 171.87 C 157.922 162.765 161.285 137.335 152.27 109.975 C 152.001 109.168 151.732 108.361 151.418 107.509 C 152.136 106.701 152.719 105.849 153.212 104.952 Z  M 114.775 59.293 C 121.278 63.106 143.21 92.259 149.355 110.917 C 158.325 138.187 154.692 163.438 153.078 171.736 C 152.808 160.254 151.598 131.235 146.081 115.806 C 139.084 96.161 123.79 68.129 110.783 64.407 C 111.59 62.164 112.846 60.235 114.775 59.293 L 114.775 59.293 Z  M 109.168 126.481 C 109.482 125.539 109.886 124.597 110.289 123.61 C 111.321 121.099 112.397 118.497 112.577 115.627 L 112.577 115.402 C 117.286 118.363 127.961 126.212 132.581 139.174 C 132.76 139.622 133.164 139.936 133.657 139.936 C 133.792 139.936 133.926 139.936 134.016 139.891 C 134.599 139.667 134.913 139.039 134.689 138.456 C 129.127 123.027 115.941 114.73 112.218 112.622 C 111.725 111.007 110.783 109.841 109.931 108.809 C 108.944 107.643 108.047 106.522 107.598 104.683 C 106.522 100.243 106.97 95.488 107.464 90.914 L 109.527 70.551 C 109.662 69.385 109.841 68.174 110.11 66.963 C 120.695 70.013 135.675 94.502 143.614 116.748 C 149.355 132.805 150.342 165.187 150.476 174.203 C 145.273 167.385 125.225 141.506 116.748 137.963 C 115.986 137.649 115.133 137.245 114.192 136.841 L 112.711 136.169 C 110.289 133.208 108.316 128.858 109.168 126.481 L 109.168 126.481 Z  M 87.819 193.22 C 87.191 193.04 86.563 192.95 85.935 192.995 C 80.777 193.309 76.382 190.08 72.256 182.993 C 76.023 180.213 90.465 171.601 118.632 176.131 C 119.26 176.221 119.798 175.817 119.932 175.189 C 120.022 174.561 119.619 174.023 118.991 173.889 C 90.42 169.269 75.619 177.701 71.179 180.975 C 71 180.661 70.865 180.347 70.686 180.033 C 66.066 170.749 65.483 147.92 81.002 139.129 C 94.591 131.414 105.625 136.393 112.936 139.712 C 113.878 140.116 114.73 140.519 115.537 140.878 C 122.668 143.883 141.551 167.565 148.772 177.163 C 147.516 178.105 146.26 179.091 145.049 180.123 C 142.762 179.495 135.496 177.656 125.987 177.925 C 115.716 178.239 100.826 181.155 87.819 193.22 L 87.819 193.22 Z  M 120.695 197.525 C 115.627 202.818 110.873 207.796 106.343 207.976 C 100.96 208.155 97.641 203.804 94.502 199.588 C 93.111 197.705 91.766 195.911 90.241 194.655 C 102.485 183.666 116.3 180.975 125.943 180.661 C 133.343 180.437 139.443 181.558 142.582 182.276 C 142.134 182.679 141.685 183.128 141.282 183.532 C 133.164 184.429 126.57 191.381 120.695 197.525 L 120.695 197.525 Z  M 160.433 177.522 C 159.716 178.105 159.088 178.643 158.594 179.136 C 156.755 180.751 152.36 182.231 150.835 182.679 C 150.566 182.769 150.387 182.904 150.207 183.083 C 149.803 183.532 148.996 184.115 147.965 184.832 C 145.946 186.223 142.896 188.376 139.129 192.323 C 136.348 195.238 134.509 198.871 133.074 201.786 C 132.401 203.132 131.504 204.926 130.966 205.509 C 130.517 204.971 130.921 204.163 133.029 200.755 C 134.33 198.691 136.124 195.821 138.052 191.919 C 142.224 183.532 158.998 173.216 164.156 170.211 C 164.604 171.108 165.277 171.825 166.129 172.274 C 164.739 173.889 162.138 176.041 160.433 177.522 Z  M 168.237 170.121 C 167.206 170.121 166.354 169.224 166.354 168.148 C 166.354 167.071 167.206 166.174 168.237 166.174 C 169.269 166.174 170.121 167.071 170.121 168.148 C 170.146 168.663 169.958 169.165 169.602 169.538 C 169.246 169.911 168.753 170.122 168.237 170.121 L 168.237 170.121 Z " fill="rgb(51,51,51)"/><path d=" M 379.742 175.479 C 377.858 175.037 375.547 175.521 373.717 176.742 C 372.154 177.794 371.072 179.173 370.057 180.519 C 369.99 180.509 369.924 180.509 369.843 180.509 C 369.59 180.509 369.363 180.562 369.162 180.656 C 370.698 178.047 373.477 172.922 373.797 169.639 C 374.212 165.409 372.849 159.127 370.458 157.369 C 370.151 157.148 369.79 157.075 369.429 157.18 C 367.866 157.622 366.891 161.621 366.798 162.21 C 366.744 162.557 366.451 162.989 366.17 163.399 C 365.943 163.725 365.716 164.072 365.582 164.399 L 365.529 164.525 C 365.222 165.272 364.928 165.977 364.42 166.587 C 361.895 162.02 356.031 155.959 354.094 155.328 L 353.934 155.275 L 353.76 155.317 C 352.451 155.675 351.623 156.822 351.396 158.632 L 350.782 163.409 C 350.635 164.493 350.488 165.724 350.848 166.892 C 351.035 167.482 351.396 167.84 351.73 168.155 C 352.091 168.502 352.345 168.744 352.304 169.26 C 352.264 169.807 351.997 170.333 351.703 170.891 C 351.583 171.123 351.463 171.354 351.356 171.596 C 351.076 172.227 351.369 172.996 351.797 173.638 C 349.62 173.038 346.721 172.68 343.395 174.174 C 341.164 175.174 339.668 177.015 339.174 179.383 C 338.773 181.277 339.08 183.382 339.948 184.739 C 341.485 187.159 343.261 188.285 345.385 188.191 C 345.933 188.169 346.507 188.78 347.135 189.432 C 348.097 190.442 349.286 191.695 351.316 191.695 L 351.45 191.695 C 353.186 191.653 354.736 190.369 356.379 189.022 C 357.741 187.896 359.144 186.738 360.693 186.223 C 360.48 186.454 360.293 186.686 360.146 186.917 C 359.585 187.801 359.064 188.454 358.69 188.927 C 357.995 189.801 357.527 190.379 358.275 190.884 C 358.449 191 358.623 191.032 358.756 191.032 C 358.81 191.032 358.85 191.032 358.89 191.021 C 359.371 190.947 359.665 190.484 360.119 189.79 C 360.533 189.148 361.041 188.348 361.789 187.728 C 362.857 186.844 363.685 186.381 364.3 186.054 C 364.607 185.886 364.848 185.749 365.021 185.612 C 365.136 185.582 365.252 185.554 365.369 185.528 L 365.369 186.096 L 364.621 186.717 C 364.567 186.759 364.54 186.812 364.54 186.865 L 364.54 190.148 L 364.126 190.621 C 364.046 190.716 364.073 190.853 364.193 190.916 C 364.233 190.937 364.287 190.958 364.34 190.958 C 364.42 190.958 364.514 190.926 364.554 190.863 L 365.021 190.337 C 365.048 190.306 365.075 190.264 365.075 190.221 L 365.075 186.959 L 365.823 186.339 C 365.876 186.296 365.903 186.244 365.903 186.191 L 365.903 185.391 C 366.183 185.307 366.504 185.202 366.798 185.076 L 369.67 185.707 L 370.511 188.222 C 370.525 188.275 370.565 188.317 370.618 188.348 L 372.088 189.117 C 372.214 189.176 372.377 189.149 372.462 189.053 C 372.542 188.959 372.515 188.822 372.381 188.759 L 370.992 188.033 L 370.137 185.486 C 370.111 185.413 370.044 185.36 369.95 185.339 L 367.399 184.771 C 367.439 184.739 367.492 184.718 367.533 184.686 C 367.679 184.581 367.866 184.455 368.067 184.318 C 368.12 184.276 368.174 184.244 368.227 184.202 C 368.788 184.192 370.351 184.108 371.433 183.708 L 372.462 185.676 C 372.475 185.707 372.502 185.728 372.528 185.749 L 373.29 186.339 C 373.343 186.381 373.41 186.402 373.477 186.402 C 373.544 186.402 373.61 186.381 373.664 186.339 C 373.771 186.254 373.771 186.118 373.664 186.044 L 372.943 185.486 L 371.82 183.35 C 371.794 183.297 371.727 183.245 371.66 183.234 C 371.58 183.213 371.5 183.224 371.433 183.255 C 370.752 183.582 369.656 183.708 368.895 183.771 C 369.456 183.371 369.897 183.034 370.124 182.729 C 370.752 182.635 371.233 182.193 371.233 181.656 C 371.233 181.319 371.046 181.025 370.752 180.825 C 370.939 180.656 371.126 180.488 371.299 180.32 C 371.807 179.835 372.288 179.383 372.983 179.046 C 374.145 178.489 375.374 178.257 376.456 178.394 C 377.698 178.541 378.727 179.204 379.034 180.035 C 379.087 180.172 379.274 180.256 379.448 180.214 C 379.621 180.172 379.728 180.025 379.675 179.888 C 379.301 178.857 378.045 178.047 376.563 177.868 C 375.32 177.72 373.931 177.973 372.635 178.594 C 372.542 178.636 372.462 178.678 372.381 178.72 C 372.916 178.162 373.49 177.636 374.171 177.184 C 375.467 176.31 377.578 175.553 379.581 176.016 C 379.755 176.058 379.942 175.974 379.996 175.837 C 380.022 175.668 379.929 175.521 379.742 175.479 L 379.742 175.479 Z  M 369.763 157.874 C 369.763 157.874 369.79 157.885 369.83 157.917 C 371.794 159.379 373.303 165.167 372.876 169.597 C 372.488 173.522 368.267 180.477 367.466 181.772 C 368.668 179.572 371.259 174.395 371.887 169.492 C 372.609 163.883 370.004 159.358 369.323 158.274 C 369.536 157.969 369.697 157.874 369.763 157.874 L 369.763 157.874 Z  M 365.369 166.787 C 366.183 167.882 368 170.67 367.653 173.448 C 367.639 173.595 367.773 173.722 367.947 173.732 L 367.973 173.732 C 368.147 173.732 368.294 173.627 368.307 173.49 C 368.708 170.249 366.41 167.103 365.716 166.23 C 365.996 165.745 366.21 165.24 366.41 164.746 L 366.464 164.62 C 366.571 164.346 366.784 164.051 366.998 163.736 C 367.319 163.262 367.653 162.778 367.733 162.283 C 367.826 161.673 368.147 160.547 368.574 159.569 C 368.695 159.284 368.815 159.042 368.935 158.843 C 369.803 160.305 371.861 164.42 371.219 169.418 C 370.471 175.195 366.958 181.393 366.33 182.456 C 366.304 182.466 366.29 182.477 366.264 182.487 C 366.771 180.351 367.773 174.385 365.088 167.966 C 365.008 167.776 364.928 167.587 364.834 167.387 C 365.048 167.198 365.222 166.998 365.369 166.787 Z  M 353.921 156.075 C 355.858 156.969 362.39 163.809 364.22 168.187 C 366.891 174.585 365.809 180.509 365.328 182.456 C 365.248 179.762 364.888 172.954 363.245 169.334 C 361.161 164.725 356.606 158.148 352.732 157.275 C 352.972 156.749 353.346 156.296 353.921 156.075 L 353.921 156.075 Z  M 352.251 171.838 C 352.345 171.617 352.465 171.396 352.585 171.165 C 352.892 170.575 353.213 169.965 353.266 169.292 L 353.266 169.239 C 354.669 169.934 357.848 171.775 359.224 174.816 C 359.277 174.921 359.398 174.995 359.544 174.995 C 359.585 174.995 359.625 174.995 359.651 174.984 C 359.825 174.932 359.919 174.785 359.852 174.648 C 358.195 171.028 354.268 169.081 353.159 168.587 C 353.012 168.208 352.732 167.934 352.478 167.692 C 352.184 167.419 351.917 167.156 351.784 166.724 C 351.463 165.682 351.597 164.567 351.743 163.494 L 352.358 158.716 C 352.398 158.443 352.451 158.159 352.532 157.874 C 355.684 158.59 360.146 164.335 362.51 169.555 C 364.22 173.322 364.514 180.919 364.554 183.034 C 363.004 181.435 357.033 175.363 354.509 174.532 C 354.281 174.458 354.028 174.364 353.747 174.269 L 353.306 174.111 C 352.585 173.417 351.997 172.396 352.251 171.838 L 352.251 171.838 Z  M 345.893 187.496 C 345.706 187.454 345.519 187.433 345.332 187.443 C 343.795 187.517 342.486 186.759 341.257 185.097 C 342.38 184.444 346.681 182.424 355.07 183.487 C 355.257 183.508 355.417 183.413 355.457 183.266 C 355.484 183.119 355.363 182.992 355.176 182.961 C 346.667 181.877 342.259 183.855 340.937 184.623 C 340.883 184.55 340.843 184.476 340.79 184.402 C 339.414 182.224 339.24 176.868 343.862 174.806 C 347.91 172.996 351.196 174.164 353.373 174.942 C 353.654 175.037 353.907 175.132 354.148 175.216 C 356.272 175.921 361.895 181.477 364.046 183.729 C 363.672 183.95 363.298 184.181 362.937 184.423 C 362.256 184.276 360.092 183.845 357.26 183.908 C 354.201 183.981 349.766 184.665 345.893 187.496 L 345.893 187.496 Z  M 355.684 188.506 C 354.175 189.748 352.759 190.916 351.409 190.958 C 349.807 191 348.818 189.979 347.883 188.99 C 347.469 188.548 347.068 188.127 346.614 187.833 C 350.261 185.255 354.375 184.623 357.247 184.55 C 359.451 184.497 361.268 184.76 362.203 184.928 C 362.069 185.023 361.936 185.128 361.815 185.223 C 359.398 185.434 357.434 187.065 355.684 188.506 L 355.684 188.506 Z  M 367.519 183.813 C 367.305 183.95 367.118 184.076 366.972 184.192 C 366.424 184.571 365.115 184.918 364.661 185.023 C 364.58 185.044 364.527 185.076 364.474 185.118 C 364.353 185.223 364.113 185.36 363.806 185.528 C 363.205 185.854 362.296 186.36 361.174 187.286 C 360.346 187.97 359.798 188.822 359.371 189.506 C 359.17 189.822 358.903 190.242 358.743 190.379 C 358.609 190.253 358.73 190.064 359.357 189.264 C 359.745 188.78 360.279 188.106 360.854 187.191 C 362.096 185.223 367.092 182.803 368.628 182.098 C 368.761 182.308 368.962 182.477 369.216 182.582 C 368.802 182.961 368.027 183.466 367.519 183.813 Z  M 369.843 182.077 C 369.536 182.077 369.282 181.866 369.282 181.614 C 369.282 181.361 369.536 181.151 369.843 181.151 C 370.151 181.151 370.405 181.361 370.405 181.614 C 370.412 181.735 370.356 181.853 370.25 181.94 C 370.144 182.027 369.997 182.077 369.843 182.077 L 369.843 182.077 Z " fill="rgb(51,51,51)"/><g transform="matrix(1,0,0,1,370,180.975)"><text transform="matrix(1,0,0,1,0,20.622)" style="font-family:&quot;Overpass&quot;;font-weight:400;font-size:21px;font-style:normal;fill:#000000;stroke:none;">Email: cw@cwhite.xyz</text></g></svg>