<?xml version="1.0" standalone="no"?><!-- Generator: Gravit.io --><svg xmlns="http://www.w3.org/2000/svg" xmlns:xlink="http://www.w3.org/1999/xlink" style="isolation:isolate" viewBox="0 0 209.764 297.638" width="209.764" height="297.638"><defs><clipPath id="_clipPath_IJdpEcy0EiR03oAisUGWEyR5ZCKd8h0e"><rect width="209.764" height="297.638"/></clipPath></defs><g clip-path="url(#_clipPath_IJdpEcy0EiR03oAisUGWEyR5ZCKd8h0e)"><g transform="matrix(1,0,0,1,39.382,92.819)"><text transform="matrix(1,0,0,1,0,19.199)" style="font-family:&quot;Nova Slim&quot;;font-weight:400;font-size:20px;font-style:normal;fill:#000000;stroke:none;">Placeholder</text></g><path d=" M 111.578 155.53 L 103.558 155.53 C 107.015 152.402 109.12 147.134 109.155 141.384 C 111.812 141.578 113.869 143.789 113.871 146.452 C 113.871 149.263 111.589 151.544 108.779 151.544 L 108.779 152.555 C 112.142 152.555 114.882 149.815 114.882 146.452 C 114.882 143.207 112.33 140.549 109.132 140.373 C 109.12 140.091 109.12 139.809 109.097 139.515 L 109.061 139.044 L 84.227 139.044 L 84.191 139.515 C 84.156 140.079 84.133 140.667 84.133 141.231 C 84.133 147.04 86.249 152.367 89.73 155.53 L 81.71 155.53 C 80.723 155.53 79.911 156.33 79.911 157.329 C 79.911 158.329 80.711 159.128 81.71 159.128 L 111.578 159.128 C 112.571 159.128 113.377 158.323 113.377 157.329 C 113.377 156.336 112.571 155.53 111.578 155.53 L 111.578 155.53 Z  M 85.144 141.231 C 85.144 140.843 85.156 140.444 85.179 140.056 L 108.132 140.056 C 108.156 140.455 108.168 140.843 108.168 141.231 C 108.168 147.264 105.804 152.72 101.994 155.53 L 91.317 155.53 C 87.507 152.72 85.144 147.264 85.144 141.231 L 85.144 141.231 Z  M 111.578 158.105 L 81.71 158.105 C 81.275 158.105 80.923 157.753 80.923 157.317 C 80.923 156.882 81.275 156.53 81.71 156.53 L 111.566 156.53 C 112.001 156.53 112.354 156.882 112.354 157.317 C 112.354 157.753 112.013 158.105 111.578 158.105 L 111.578 158.105 Z  M 94.339 132.071 C 94.974 132.624 95.48 133.059 95.48 133.976 C 95.48 134.893 94.974 135.329 94.339 135.881 L 94.222 135.987 L 94.88 136.751 L 94.998 136.657 C 95.692 136.046 96.491 135.364 96.491 133.988 C 96.491 132.612 95.703 131.93 94.998 131.319 C 94.363 130.766 93.857 130.331 93.857 129.414 C 93.857 128.497 94.363 128.062 94.998 127.509 C 95.092 127.427 95.186 127.344 95.268 127.262 L 94.598 126.509 L 94.339 126.745 C 93.646 127.356 92.846 128.038 92.846 129.414 C 92.846 130.79 93.646 131.46 94.339 132.071 L 94.339 132.071 Z  M 98.29 132.071 C 98.925 132.624 99.431 133.059 99.431 133.976 C 99.431 134.893 98.925 135.329 98.29 135.881 L 98.173 135.987 L 98.831 136.751 L 98.949 136.657 C 99.643 136.046 100.442 135.364 100.442 133.988 C 100.442 132.612 99.654 131.93 98.949 131.319 C 98.314 130.766 97.808 130.331 97.808 129.414 C 97.808 128.497 98.314 128.062 98.949 127.509 C 99.043 127.427 99.137 127.344 99.219 127.262 L 98.549 126.509 L 98.29 126.745 C 97.596 127.356 96.797 128.038 96.797 129.414 C 96.797 130.79 97.596 131.46 98.29 132.071 L 98.29 132.071 Z " fill="rgb(147,149,152)"/></g></svg>